<svg xmlns="http://www.w3.org/2000/svg" viewBox="0 0 18 18" shape-rendering="crispEdges">
  <!-- One Quadra cell, as `drawBloc` draws it (src/render/blocks.ts): the cyan piece's shade 4
       for the fill, shades 7/6/5 lighting the top and left, 1/2/3 shading the bottom and right. -->
  <rect width="18" height="18" fill="#008b8f"/>
  <path fill="#00f3ff" d="M0 0h18v1H0zM0 0h1v18H0z"/>
  <path fill="#00cfdb" d="M1 1h16v1H1zM1 1h1v16H1z"/>
  <path fill="#00abb3" d="M2 2h14v1H2zM2 2h1v14H2z"/>
  <path fill="#001f23" d="M0 17h18v1H0zM17 0h1v18h-1z"/>
  <path fill="#004347" d="M1 16h16v1H1zM16 1h1v16h-1z"/>
  <path fill="#00676b" d="M2 15h14v1H2zM15 2h1v14h-1z"/>
</svg>
